<svg xmlns="http://www.w3.org/2000/svg" viewBox="0 0 3276 481" fill="#fff">
<path d="M3154.94 188.167C3183.08 146.097 3223.16 124.07 3275.21 122.085V175.675C3223.42 177.703 3184.93 197.746 3159.73 235.802V430.552H3207.37V470.809H3063.54V430.358H3099.27V170.886H3063.54V130.434H3132.03L3154.94 188.167ZM2824.05 195.351C2812.31 212.351 2805.84 238.24 2804.63 273.018H2971.95C2970.79 238.456 2964.57 212.632 2953.5 195.351C2942.44 178.07 2920.75 169.462 2888.78 169.462C2856.8 169.462 2835.89 178.005 2824.05 195.351ZM2817.57 468.026C2799.24 461.391 2783.5 449.079 2772.65 432.882C2761.77 416.139 2754.27 397.427 2750.58 377.803C2745.96 352.375 2743.79 326.561 2744.11 300.719C2744.11 279.706 2744.88 261.54 2746.44 246.223C2748.3 229.864 2752.1 213.786 2757.77 198.328C2762.76 183.223 2771 169.395 2781.91 157.812C2793.95 146.217 2808.38 137.382 2824.18 131.923C2844.98 124.738 2866.9 121.319 2888.91 121.826C2910.78 121.311 2932.58 124.731 2953.25 131.923C2968.87 137.394 2983.1 146.232 2994.93 157.812C3005.59 169.425 3013.53 183.265 3018.17 198.328C3023.46 213.858 3027.04 229.917 3028.85 246.223C3030.59 264.334 3031.39 282.524 3031.24 300.719V316.187H2804.24C2805.02 358.731 2811.49 388.612 2823.66 405.828C2835.83 423.044 2858.94 431.674 2892.98 431.717C2924.01 431.717 2945.35 425.957 2957 414.436C2968.72 402.915 2975.38 386.088 2977 363.823L3026.39 366.218C3025.33 381.063 3022.6 395.741 3018.23 409.97C3013.95 422.768 3007.37 434.677 2998.81 445.114C2988.15 457.548 2974.06 466.554 2958.29 471.003C2936.83 477.211 2914.55 480.113 2892.21 479.611C2867.1 480.374 2842.07 476.535 2818.35 468.285L2817.57 468.026ZM2619.44 404.598V184.542C2595.95 175.152 2570.89 170.299 2545.58 170.239C2532.69 169.976 2519.86 172.173 2507.78 176.711C2498.11 180.256 2489.43 186.071 2482.47 193.668C2475.53 201.909 2470.45 211.559 2467.59 221.952C2464.03 233.594 2461.64 245.562 2460.47 257.678C2459.26 269.803 2458.65 284.387 2458.65 301.431C2458.54 315.734 2459.14 330.034 2460.47 344.277C2461.65 356.282 2463.92 368.154 2467.26 379.745C2469.98 390.157 2474.85 399.882 2481.57 408.287C2488.36 416.105 2496.96 422.148 2506.62 425.892C2518.68 430.496 2531.52 432.695 2544.42 432.364C2571.84 432.207 2598.36 422.53 2619.44 404.986V404.598ZM2632.39 441.296C2603.92 465.939 2567.64 479.698 2529.99 480.129C2509.97 480.598 2490.05 477.169 2471.34 470.032C2456.61 464.442 2443.33 455.591 2432.5 444.143C2422.39 432.385 2414.96 418.556 2410.75 403.627C2405.8 388.04 2402.42 371.995 2400.66 355.733C2397.46 319.472 2397.46 283.001 2400.66 246.74C2402.44 230.454 2405.93 214.4 2411.08 198.846C2415.44 183.926 2422.94 170.111 2433.09 158.33C2443.93 146.897 2457.2 138.049 2471.92 132.441C2490.94 125.292 2511.16 121.864 2531.47 122.344C2561.4 122.679 2591.04 128.333 2618.99 139.042V69.5307H2583.26V29.0793H2679.12V430.358H2714.85V470.809H2639.25L2632.39 441.296ZM2279.36 76.003C2274.5 72.5403 2271.01 67.4758 2269.52 61.6994C2268.37 55.1193 2267.87 48.4423 2268.03 41.7648C2267.86 34.8937 2268.36 28.0225 2269.52 21.248C2271.01 15.4716 2274.5 10.4069 2279.36 6.94418C2286.25 1.9344 2294.68 -0.494027 2303.18 0.0836353C2310.06 -0.170269 2316.93 0.951981 2323.37 3.38454C2328.14 5.20662 2332 8.83397 2334.12 13.4812C2335.98 17.6044 2337.29 21.9575 2338 26.4257C2338.67 31.554 2338.97 36.7233 2338.91 41.8944C2338.97 46.7644 2338.66 51.6321 2338 56.4569C2337.25 60.9168 2335.95 65.2653 2334.12 69.4014C2333.13 71.7783 2331.67 73.9285 2329.82 75.7203C2327.97 77.5122 2325.78 78.9078 2323.37 79.8216C2316.93 82.2541 2310.06 83.3764 2303.18 83.1225C2294.68 83.7001 2286.25 81.2717 2279.36 76.2619V76.003ZM2237.02 130.758H2332.95V430.875H2368.68V470.809H2237.02V430.358H2272.75V170.886H2237.02V130.758ZM2183.69 130.758V253.407H2144.85C2142.91 219.277 2135.46 196.84 2122.52 186.096C2109.57 175.352 2087.05 170.001 2054.94 170.044C2033.37 170.044 2017.68 174.51 2007.88 183.442C2002.96 187.893 1999.07 193.37 1996.5 199.488C1993.93 205.606 1992.73 212.214 1993 218.845C1992.61 224.597 1993.5 230.363 1995.62 235.725C1997.73 241.087 2001.02 245.911 2005.23 249.847C2016.96 258.647 2030.48 264.748 2044.84 267.71L2103.1 283.179C2135.29 291.55 2158.72 302.768 2173.39 316.835C2188.07 330.901 2195.4 352.044 2195.4 380.263C2195.4 446.538 2155.51 479.676 2075.72 479.676C2029.68 479.676 1995.35 465.178 1972.74 436.183L1973.9 471.327H1932.8V348.354H1970.92C1976.62 404.102 2007.84 431.976 2064.59 431.976C2111.84 431.976 2135.46 415.709 2135.46 383.175C2135.67 377.833 2134.77 372.506 2132.82 367.527C2130.87 362.549 2127.91 358.027 2124.14 354.244C2116.63 346.93 2103.49 340.652 2084.85 335.539L2026.59 320.653C1993.58 311.074 1969.84 299.446 1955.39 285.768C1940.93 272.09 1933.47 249.631 1932.99 218.392C1932.53 205.363 1934.9 192.389 1939.94 180.366C1944.98 168.342 1952.57 157.556 1962.19 148.751C1981.6 130.887 2010.77 121.956 2049.7 121.956C2091.77 121.956 2122.95 133.865 2143.23 157.682L2142.65 130.305L2183.69 130.758ZM1542.1 130.758H1610.58L1629.03 164.673C1667.86 136.54 1708.36 122.452 1750.52 122.409C1819.22 122.409 1853.55 158.33 1853.51 230.172V430.811H1889.24V470.809H1759.45V430.358H1792.79V233.408C1792.79 210.453 1788.47 194.078 1779.84 184.283C1771.21 174.489 1756.8 169.635 1736.61 169.721C1702.08 169.721 1669.14 182.018 1637.77 206.613V430.552H1671.1V470.809H1542.42V430.358H1578.15V170.886H1542.42L1542.1 130.758ZM1355.03 36.6519H1494.97V77.1679H1455.68V430.875H1494.97V470.809H1355.03V430.358H1394.39V76.8444H1355.03V36.6519ZM963.745 29.5324H1059.61V158.977C1092.65 135.877 1131.86 123.228 1172.17 122.668C1240.83 122.668 1275.16 158.589 1275.16 230.43V431.069H1310.89V470.809H1181.43V430.358H1214.76V233.408C1214.76 210.453 1210.45 194.078 1201.82 184.283C1193.19 174.489 1178.8 169.635 1158.64 169.721C1124.12 169.721 1091.17 182.018 1059.8 206.613V430.552H1093.14V470.809H963.681V430.358H999.411V69.5307H963.745V29.5324ZM924.261 130.758V255.801H885.424C879.857 198.63 850.686 170.044 797.91 170.044C782.442 169.469 767.104 173.069 753.506 180.465C741.737 187.48 732.717 198.303 727.939 211.143C722.708 224.134 719.099 237.72 717.194 251.595C715.273 268.005 714.387 284.52 714.54 301.042C714.54 317.741 714.928 331.742 715.705 343.047C716.674 354.929 718.842 366.682 722.178 378.127C724.749 388.647 729.513 398.506 736.159 407.058C743.025 414.83 751.569 420.939 761.145 424.921C773.454 429.969 786.682 432.393 799.982 432.04C830.188 432.04 850.751 426.582 861.668 415.666C872.543 404.728 878.627 387.382 879.792 363.564L928.015 365.959C927.347 381.981 924.761 397.865 920.312 413.271C916.128 426.123 909.342 437.976 900.376 448.091C889.622 459.694 875.759 467.962 860.438 471.909C839.345 477.581 817.546 480.197 795.71 479.676C773.831 480.186 752.039 476.766 731.369 469.579C715.918 464.84 701.92 456.265 690.68 444.652C679.44 433.04 671.326 418.77 667.094 403.174C661.83 387.741 658.333 371.76 656.672 355.539C655.248 340.652 654.601 322.465 654.601 301.042C654.601 279.619 655.378 261.756 656.931 246.287C658.746 229.925 662.461 213.831 668 198.328C672.84 183.392 680.856 169.681 691.496 158.136C703.157 146.627 717.183 137.793 732.599 132.247C752.648 125.083 773.842 121.66 795.127 122.15C833.274 122.15 862.855 134.857 883.87 160.271L883.223 130.499L924.261 130.758ZM407.014 195.48C395.276 212.481 388.804 238.37 387.595 273.147H554.984C553.775 238.628 547.605 212.74 536.471 195.48C525.403 178.394 503.719 169.591 471.743 169.591C439.767 169.591 418.795 178.135 407.014 195.48ZM400.541 468.155C382.191 461.52 366.433 449.21 355.555 433.011C344.693 416.264 337.216 397.553 333.547 377.932C328.891 352.509 326.723 326.692 327.074 300.848C326.932 282.654 327.732 264.464 329.469 246.352C331.297 229.988 335.1 213.907 340.797 198.458C345.802 183.372 354.017 169.549 364.876 157.941C376.943 146.346 391.388 137.513 407.208 132.053C428.011 124.862 449.932 121.443 471.937 121.956C493.794 121.445 515.565 124.865 536.212 132.053C551.845 137.506 566.08 146.346 577.898 157.941C588.579 169.537 596.52 183.383 601.135 198.458C606.441 213.986 610.044 230.045 611.88 246.352C613.434 261.627 614.275 279.813 614.275 300.848V316.317H387.077C387.854 358.861 394.327 388.741 406.496 405.957C418.665 423.173 441.795 431.803 475.885 431.846C506.826 431.846 528.164 426.086 539.902 414.565C551.618 403.045 558.285 386.217 559.838 363.952L609.291 366.347C608.108 381.192 605.308 395.863 600.941 410.099C596.655 422.895 590.074 434.804 581.522 445.244C570.887 457.675 556.811 466.683 541.067 471.133C519.395 477.268 496.91 480.04 474.396 479.352C449.293 480.121 424.261 476.282 400.541 468.026V468.155ZM277.557 142.343V84.0933H191.791V430.681H240.596V470.809H81.6229V430.358H130.428V83.9639H45.3101V142.214H0V36.3282H322.219V142.343H277.557Z"/>
</svg>